<svg width="1647" height="690" viewBox="0 0 1647 690" fill="none" xmlns="http://www.w3.org/2000/svg">
<path d="M4.20996 498.051C43.1003 426.457 136.791 309.344 222.084 309.344C307.378 309.344 342.733 455.183 471.336 459.16C599.939 463.138 622.92 194.441 757.268 194.441C891.617 194.441 908.41 535.507 1033.04 540.476C1157.66 545.446 1163.41 264.708 1326.92 264.708C1490.44 264.708 1404.7 540.476 1642.02 498.051" stroke="#DAD7FF" stroke-width="3"/>
<path d="M2.44141 594.748C41.3317 523.154 135.022 332.767 220.316 332.767C305.609 332.767 383.832 525.009 496.525 525.009C609.219 525.009 648.551 231.563 763.013 231.563C877.474 231.563 914.596 621.559 1031.27 626.212C1147.94 630.864 1173.13 307.134 1305.71 307.134C1438.29 307.134 1418.4 594.748 1641.58 552.322" stroke="#DAD7FF" stroke-width="3"/>
<path d="M2 653.971C40.8903 582.377 160.213 366.357 245.506 366.357C330.8 366.357 373.226 568.764 501.829 572.741C630.432 576.719 652.529 274.431 766.99 274.431C881.452 274.431 885.429 669.08 1029.5 674.825C1173.57 680.57 1176.66 353.98 1309.25 353.98C1441.83 353.98 1375.54 611.545 1641.14 611.545" stroke="#DAD7FF" stroke-width="3"/>
<path d="M3.76807 432.999C70.5003 350.002 140.768 266.476 226.062 266.476C311.355 266.476 338.755 422.037 442.168 422.037C570.833 422.037 609.22 145.828 743.568 145.828C877.917 145.828 916.365 467.607 1037.01 472.418C1157.66 477.229 1171.36 206.373 1334.88 206.373C1498.39 206.373 1429.89 513.518 1641.58 432.999" stroke="#DAD7FF" stroke-width="3"/>
<path d="M2.44141 387.125C69.1737 304.128 145.187 206.725 230.48 206.725C315.774 206.725 321.077 387.125 424.49 387.125C527.903 387.125 613.638 86.0767 747.987 86.0767C882.335 86.0767 926.087 396.401 1037.01 400.825C1147.94 405.248 1169.15 132.128 1332.67 132.128C1474.09 132.128 1439.62 451.205 1646 373.248" stroke="#DAD7FF" stroke-width="3"/>
<path d="M4.20996 191.849C43.1003 263.443 136.791 380.556 222.084 380.556C307.378 380.556 342.733 234.717 471.336 230.739C599.939 226.762 622.92 495.459 757.268 495.459C891.617 495.459 908.41 154.393 1033.04 149.423C1157.66 144.454 1163.41 425.191 1326.92 425.191C1490.44 425.191 1404.7 149.423 1642.02 191.849" stroke="#8B84D6" stroke-width="3"/>
<path d="M2.44141 95.152C41.3317 166.746 135.022 357.133 220.316 357.133C305.609 357.133 383.832 164.891 496.525 164.891C609.219 164.891 648.551 458.336 763.013 458.336C877.474 458.336 914.596 68.3404 1031.27 63.6879C1147.94 59.0353 1173.13 382.765 1305.71 382.765C1438.29 382.765 1418.4 95.152 1641.58 137.578" stroke="#8B84D6" stroke-width="3"/>
<path d="M2 35.9292C40.8903 107.523 160.213 323.542 245.506 323.542C330.8 323.542 373.226 121.136 501.829 117.159C630.432 113.181 652.529 415.469 766.99 415.469C881.452 415.469 885.429 20.8201 1029.5 15.0749C1173.57 9.32976 1176.66 335.92 1309.25 335.92C1441.83 335.92 1375.54 78.3549 1641.14 78.3549" stroke="#8B84D6" stroke-width="3"/>
<path d="M3.76807 256.901C70.5003 339.898 140.768 423.423 226.062 423.423C311.355 423.423 338.755 267.862 442.168 267.862C570.833 267.862 609.22 544.072 743.568 544.072C877.917 544.072 916.365 222.293 1037.01 217.482C1157.66 212.67 1171.36 483.527 1334.88 483.527C1498.39 483.527 1429.89 176.381 1641.58 256.901" stroke="#8B84D6" stroke-width="3"/>
<path d="M2.44141 302.775C69.1737 385.772 145.187 483.174 230.48 483.174C315.774 483.174 321.077 302.775 424.49 302.775C527.903 302.775 613.638 603.823 747.987 603.823C882.335 603.823 926.087 293.498 1037.01 289.075C1147.94 284.651 1169.15 557.772 1332.67 557.772C1474.09 557.772 1439.62 238.695 1646 316.652" stroke="#8B84D6" stroke-width="3"/>
</svg>
