<svg width="1641" height="592" viewBox="0 0 1641 592" fill="none" xmlns="http://www.w3.org/2000/svg">
<mask id="mask0" mask-type="alpha" maskUnits="userSpaceOnUse" x="0" y="0" width="1639" height="592">
<rect width="1639" height="592" fill="#C4C4C4"/>
</mask>
<g mask="url(#mask0)">
<path d="M-38.6812 426.85C2.12531 366.105 100.432 266.739 189.928 266.739C279.424 266.739 316.521 390.478 451.46 393.853C586.4 397.228 610.513 169.248 751.48 169.248C892.448 169.248 910.069 458.63 1040.84 462.847C1171.6 467.063 1177.63 228.868 1349.2 228.868C1520.77 228.868 1430.82 462.847 1679.83 426.85" stroke="white" stroke-width="3"/>
<path d="M-40.5376 508.894C0.268862 448.149 98.5753 286.613 188.071 286.613C277.567 286.613 359.644 449.723 477.89 449.723C596.136 449.723 637.406 200.746 757.507 200.746C877.608 200.746 916.559 531.642 1038.98 535.59C1161.4 539.537 1187.83 264.865 1326.94 264.865C1466.06 264.865 1445.19 508.894 1679.36 472.897" stroke="white" stroke-width="3"/>
<path d="M-41 559.142C-0.19354 498.398 125.008 315.113 214.504 315.113C304 315.113 348.516 486.847 483.456 490.222C618.395 493.597 641.581 237.117 761.682 237.117C881.782 237.117 885.956 571.962 1037.13 576.836C1188.29 581.711 1191.54 304.611 1330.65 304.611C1469.77 304.611 1400.21 523.145 1678.9 523.145" stroke="white" stroke-width="3"/>
<path d="M-39.145 371.656C30.8752 301.236 104.605 230.368 194.101 230.368C283.597 230.368 312.347 362.356 420.855 362.356C555.859 362.356 596.137 128.002 737.105 128.002C878.073 128.002 918.416 401.02 1045.01 405.102C1171.6 409.184 1185.98 179.373 1357.55 179.373C1529.12 179.373 1457.25 439.974 1679.36 371.656" stroke="white" stroke-width="3"/>
<path d="M-40.5376 332.734C29.4826 262.314 109.241 179.672 198.737 179.672C288.233 179.672 293.797 332.734 402.305 332.734C510.813 332.734 600.773 77.3059 741.741 77.3059C882.708 77.3059 928.616 340.604 1045.01 344.358C1161.4 348.111 1183.66 116.378 1355.23 116.378C1503.62 116.378 1467.45 387.103 1684 320.96" stroke="white" stroke-width="3"/>
<path d="M-38.6812 167.05C2.12531 227.794 100.432 327.16 189.928 327.16C279.424 327.16 316.521 203.421 451.46 200.047C586.4 196.672 610.513 424.651 751.48 424.651C892.448 424.651 910.069 135.27 1040.84 131.053C1171.6 126.837 1177.63 365.032 1349.2 365.032C1520.77 365.032 1430.82 131.053 1679.83 167.05" stroke="#E6E3FF" stroke-width="3"/>
<path d="M-40.5376 85.0059C0.268862 145.75 98.5753 307.287 188.071 307.287C277.567 307.287 359.644 144.177 477.89 144.177C596.136 144.177 637.406 393.154 757.507 393.154C877.608 393.154 916.559 62.2572 1038.98 58.3097C1161.4 54.3622 1187.83 329.035 1326.94 329.035C1466.06 329.035 1445.19 85.0059 1679.36 121.003" stroke="#E6E3FF" stroke-width="3"/>
<path d="M-41 34.7576C-0.19354 95.502 125.008 278.787 214.504 278.787C304 278.787 348.516 107.052 483.456 103.678C618.395 100.303 641.581 356.782 761.682 356.782C881.782 356.782 885.956 21.9381 1037.13 17.0636C1188.29 12.189 1191.54 289.288 1330.65 289.288C1469.77 289.288 1400.21 70.7542 1678.9 70.7542" stroke="#E6E3FF" stroke-width="3"/>
<path d="M-39.145 222.243C30.8752 292.663 104.605 363.532 194.101 363.532C283.597 363.532 312.347 231.544 420.855 231.544C555.859 231.544 596.137 465.897 737.105 465.897C878.073 465.897 918.416 192.88 1045.01 188.798C1171.6 184.716 1185.98 414.527 1357.55 414.527C1529.12 414.527 1457.25 153.926 1679.36 222.243" stroke="#E6E3FF" stroke-width="3"/>
<path d="M-40.5376 261.166C29.4826 331.586 109.241 414.228 198.737 414.228C288.233 414.228 293.797 261.166 402.305 261.166C510.813 261.166 600.773 516.594 741.741 516.594C882.708 516.594 928.616 253.295 1045.01 249.542C1161.4 245.789 1183.66 477.521 1355.23 477.521C1503.62 477.521 1467.45 206.796 1684 272.94" stroke="#E6E3FF" stroke-width="3"/>
</g>
</svg>
