<svg width="297" height="297" viewBox="0 0 297 297" fill="none" xmlns="http://www.w3.org/2000/svg">
<path fill-rule="evenodd" clip-rule="evenodd" d="M148.5 297C230.514 297 297 230.514 297 148.5C297 66.4857 230.514 0 148.5 0C66.4857 0 0 66.4857 0 148.5C0 230.514 66.4857 297 148.5 297ZM61 148.5C61 100.174 100.174 61 148.5 61C196.826 61 236 100.174 236 148.5C236 196.826 196.826 236 148.5 236C100.174 236 61 196.826 61 148.5ZM198.174 92.5438C184.961 80.81 167.562 73.6788 148.5 73.6788H148.504C142.565 73.6734 136.647 74.3739 130.873 75.7656C141.196 89.7504 150.573 104.41 158.939 119.647C173.717 113.876 188.466 105.349 198.174 92.5438ZM121.572 88.0691C119.948 85.6559 118.312 83.2262 116.667 80.7663V80.7706C95.6763 90.6538 80.0181 110.009 75.2144 133.319C98.0037 133.262 122.674 129.867 144.506 124.21C137.329 111.475 129.586 99.9735 121.572 88.0691ZM223.321 148.006C223.232 130.934 217.285 114.41 206.473 101.197V101.193C195.89 114.331 179.737 124.761 164.631 130.856C165.402 132.551 166.184 134.205 166.958 135.842C168.481 139.061 169.971 142.211 171.276 145.468C188.802 143.701 206.014 144.593 223.321 148.006ZM153.564 141.928C152.531 139.832 151.52 137.779 150.582 135.786C125.426 142.922 99.8106 146.186 73.7137 146.308C73.1223 165.562 80.005 184.297 92.92 198.589C106.373 173.416 132.295 159.057 156.664 148.312C155.645 146.155 154.594 144.021 153.564 141.928ZM222.389 160.343C211.856 157.586 201.012 156.189 190.124 156.187L190.119 156.183C185.272 156.183 180.431 156.534 175.634 157.232C182.367 174.765 186.191 192.154 190.185 210.318L190.246 210.599C198.765 204.875 206.014 197.459 211.544 188.813C217.073 180.168 220.765 170.477 222.389 160.343ZM177.729 217.402C174.098 198.2 168.686 178.469 161.791 160.649L161.787 160.654C137.125 168.962 116.138 185.596 102.589 207.576C115.706 217.805 131.87 223.349 148.504 223.326C158.546 223.339 168.486 221.324 177.729 217.402Z" fill="white"/>
</svg>
